<mxfile host="app.diagrams.net" agent="Mozilla/5.0 (X11; Linux x86_64) AppleWebKit/537.36 (KHTML, like Gecko) Chrome/130.0.0.0 Safari/537.36" version="27.0.4">
  <diagram name="Parse" id="ZKBCoRI4lpfDGy-4syBj">
    <mxGraphModel dx="2275" dy="776" grid="1" gridSize="10" guides="1" tooltips="1" connect="1" arrows="1" fold="1" page="1" pageScale="1" pageWidth="850" pageHeight="1100" math="0" shadow="0">
      <root>
        <mxCell id="0" />
        <mxCell id="1" parent="0" />
        <mxCell id="raDAFkKPr205OreLMAkA-1" value="Value iterator&lt;div&gt;&amp;nbsp;converts `,` notation&amp;nbsp;&lt;/div&gt;&lt;div&gt;into single headers. Why&amp;nbsp;&lt;/div&gt;&lt;div&gt;they introduce `,` idk, it&#39;s just&amp;nbsp;&lt;/div&gt;&lt;div&gt;complicating architecture.&lt;/div&gt;" style="ellipse;shape=cloud;whiteSpace=wrap;html=1;" vertex="1" parent="1">
          <mxGeometry x="600" y="440" width="210" height="140" as="geometry" />
        </mxCell>
        <mxCell id="w6QvwMustZXX6lFKVsSo-62" value="&lt;div&gt;&lt;br&gt;&lt;/div&gt;&lt;div&gt;&lt;span style=&quot;background-color: transparent; color: light-dark(rgb(0, 0, 0), rgb(255, 255, 255));&quot;&gt;Once user get&lt;/span&gt;&lt;/div&gt;&lt;div&gt;&lt;span style=&quot;background-color: transparent; color: light-dark(rgb(0, 0, 0), rgb(255, 255, 255));&quot;&gt;&amp;nbsp;msg from parser,&amp;nbsp;&lt;/span&gt;&lt;span style=&quot;background-color: transparent; color: light-dark(rgb(0, 0, 0), rgb(255, 255, 255));&quot;&gt;parser resets&lt;/span&gt;&lt;/div&gt;&lt;div&gt;&lt;span style=&quot;background-color: transparent; color: light-dark(rgb(0, 0, 0), rgb(255, 255, 255));&quot;&gt;&amp;nbsp;itself and does&lt;/span&gt;&lt;/div&gt;&lt;div&gt;&amp;nbsp;not hold ownership over msg&lt;/div&gt;&lt;div&gt;&amp;nbsp;anymore. Ownership over&amp;nbsp;&lt;/div&gt;&lt;div&gt;msg is transfererd to user&amp;nbsp;&lt;/div&gt;&lt;div&gt;which means user is&amp;nbsp;&lt;/div&gt;&lt;div&gt;responsible&amp;nbsp;&lt;span style=&quot;background-color: transparent; color: light-dark(rgb(0, 0, 0), rgb(255, 255, 255));&quot;&gt;for destroying&lt;/span&gt;&lt;/div&gt;&lt;div&gt;&lt;span style=&quot;background-color: transparent; color: light-dark(rgb(0, 0, 0), rgb(255, 255, 255));&quot;&gt;&amp;nbsp;the message.&lt;/span&gt;&lt;/div&gt;" style="ellipse;shape=cloud;whiteSpace=wrap;html=1;" parent="1" vertex="1">
          <mxGeometry x="-335" y="1150" width="220" height="180" as="geometry" />
        </mxCell>
        <mxCell id="w6QvwMustZXX6lFKVsSo-14" value="&lt;div&gt;&lt;br&gt;&lt;/div&gt;Because parser&amp;nbsp;&lt;span style=&quot;background-color: transparent; color: light-dark(rgb(0, 0, 0), rgb(255, 255, 255));&quot;&gt;manages&lt;/span&gt;&lt;div&gt;&lt;span style=&quot;background-color: transparent; color: light-dark(rgb(0, 0, 0), rgb(255, 255, 255));&quot;&gt;&amp;nbsp;msg&amp;nbsp;&lt;/span&gt;&lt;span style=&quot;background-color: transparent; color: light-dark(rgb(0, 0, 0), rgb(255, 255, 255));&quot;&gt;creation it holds&lt;/span&gt;&lt;div&gt;&lt;span style=&quot;background-color: transparent; color: light-dark(rgb(0, 0, 0), rgb(255, 255, 255));&quot;&gt;current parsing state&lt;/span&gt;&lt;/div&gt;&lt;div&gt;&lt;span style=&quot;background-color: transparent; color: light-dark(rgb(0, 0, 0), rgb(255, 255, 255));&quot;&gt;&amp;nbsp;and can&#39;t be shared in parallel&lt;/span&gt;&lt;/div&gt;&lt;div&gt;&lt;span style=&quot;background-color: transparent; color: light-dark(rgb(0, 0, 0), rgb(255, 255, 255));&quot;&gt;configuration.&lt;/span&gt;&lt;/div&gt;&lt;div&gt;&lt;div&gt;&lt;br&gt;&lt;/div&gt;&lt;/div&gt;&lt;/div&gt;" style="ellipse;shape=cloud;whiteSpace=wrap;html=1;" parent="1" vertex="1">
          <mxGeometry x="-700" y="590" width="200" height="130" as="geometry" />
        </mxCell>
        <mxCell id="w6QvwMustZXX6lFKVsSo-7" value="Library initialization populates scheme and fields parsing and generation logic." style="ellipse;shape=cloud;whiteSpace=wrap;html=1;" parent="1" vertex="1">
          <mxGeometry x="-660" y="470" width="150" height="110" as="geometry" />
        </mxCell>
        <mxCell id="w6QvwMustZXX6lFKVsSo-4" value="During&amp;nbsp;&lt;div&gt;configuration one&lt;/div&gt;&lt;div&gt;&amp;nbsp;can add only&lt;span style=&quot;background-color: transparent; color: light-dark(rgb(0, 0, 0), rgb(255, 255, 255));&quot;&gt;&amp;nbsp;logger&lt;/span&gt;&lt;/div&gt;&lt;div&gt;&lt;div&gt;at the moment.&lt;/div&gt;&lt;/div&gt;" style="ellipse;shape=cloud;whiteSpace=wrap;html=1;" parent="1" vertex="1">
          <mxGeometry x="-650" y="310" width="150" height="110" as="geometry" />
        </mxCell>
        <mxCell id="w6QvwMustZXX6lFKVsSo-3" value="" style="edgeStyle=orthogonalEdgeStyle;rounded=0;orthogonalLoop=1;jettySize=auto;html=1;" parent="1" source="w6QvwMustZXX6lFKVsSo-1" target="w6QvwMustZXX6lFKVsSo-2" edge="1">
          <mxGeometry relative="1" as="geometry" />
        </mxCell>
        <mxCell id="w6QvwMustZXX6lFKVsSo-1" value="User use our library." style="ellipse;whiteSpace=wrap;html=1;" parent="1" vertex="1">
          <mxGeometry x="-520" y="250" width="120" height="80" as="geometry" />
        </mxCell>
        <mxCell id="w6QvwMustZXX6lFKVsSo-6" value="" style="edgeStyle=orthogonalEdgeStyle;rounded=0;orthogonalLoop=1;jettySize=auto;html=1;" parent="1" source="w6QvwMustZXX6lFKVsSo-2" target="w6QvwMustZXX6lFKVsSo-5" edge="1">
          <mxGeometry relative="1" as="geometry" />
        </mxCell>
        <mxCell id="w6QvwMustZXX6lFKVsSo-2" value="Configure library" style="rounded=1;whiteSpace=wrap;html=1;" parent="1" vertex="1">
          <mxGeometry x="-520" y="390" width="120" height="60" as="geometry" />
        </mxCell>
        <mxCell id="w6QvwMustZXX6lFKVsSo-13" value="" style="edgeStyle=orthogonalEdgeStyle;rounded=0;orthogonalLoop=1;jettySize=auto;html=1;" parent="1" source="w6QvwMustZXX6lFKVsSo-5" target="w6QvwMustZXX6lFKVsSo-11" edge="1">
          <mxGeometry relative="1" as="geometry" />
        </mxCell>
        <mxCell id="w6QvwMustZXX6lFKVsSo-5" value="Init library" style="rounded=1;whiteSpace=wrap;html=1;" parent="1" vertex="1">
          <mxGeometry x="-520" y="530" width="120" height="60" as="geometry" />
        </mxCell>
        <mxCell id="w6QvwMustZXX6lFKVsSo-26" value="" style="edgeStyle=orthogonalEdgeStyle;rounded=0;orthogonalLoop=1;jettySize=auto;html=1;" parent="1" source="w6QvwMustZXX6lFKVsSo-11" target="w6QvwMustZXX6lFKVsSo-19" edge="1">
          <mxGeometry relative="1" as="geometry" />
        </mxCell>
        <mxCell id="w6QvwMustZXX6lFKVsSo-11" value="Create one parser per thread." style="rounded=1;whiteSpace=wrap;html=1;" parent="1" vertex="1">
          <mxGeometry x="-520" y="670" width="120" height="60" as="geometry" />
        </mxCell>
        <mxCell id="w6QvwMustZXX6lFKVsSo-18" value="If lines are correct&lt;div&gt;parser will create msg internally.&lt;/div&gt;" style="ellipse;shape=cloud;whiteSpace=wrap;html=1;" parent="1" vertex="1">
          <mxGeometry x="-430" y="850" width="150" height="110" as="geometry" />
        </mxCell>
        <mxCell id="w6QvwMustZXX6lFKVsSo-27" value="" style="edgeStyle=orthogonalEdgeStyle;rounded=0;orthogonalLoop=1;jettySize=auto;html=1;" parent="1" source="w6QvwMustZXX6lFKVsSo-19" target="w6QvwMustZXX6lFKVsSo-20" edge="1">
          <mxGeometry relative="1" as="geometry" />
        </mxCell>
        <mxCell id="w6QvwMustZXX6lFKVsSo-19" value="Receive some&amp;nbsp;&lt;div&gt;bytes.&lt;/div&gt;" style="rounded=1;whiteSpace=wrap;html=1;" parent="1" vertex="1">
          <mxGeometry x="-520" y="800" width="120" height="60" as="geometry" />
        </mxCell>
        <mxCell id="w6QvwMustZXX6lFKVsSo-28" value="" style="edgeStyle=orthogonalEdgeStyle;rounded=0;orthogonalLoop=1;jettySize=auto;html=1;" parent="1" source="w6QvwMustZXX6lFKVsSo-20" target="w6QvwMustZXX6lFKVsSo-21" edge="1">
          <mxGeometry relative="1" as="geometry" />
        </mxCell>
        <mxCell id="w6QvwMustZXX6lFKVsSo-20" value="Feed parser some bytes." style="rounded=1;whiteSpace=wrap;html=1;" parent="1" vertex="1">
          <mxGeometry x="-520" y="920" width="120" height="60" as="geometry" />
        </mxCell>
        <mxCell id="w6QvwMustZXX6lFKVsSo-25" value="" style="edgeStyle=orthogonalEdgeStyle;rounded=0;orthogonalLoop=1;jettySize=auto;html=1;entryX=0;entryY=0.5;entryDx=0;entryDy=0;" parent="1" source="w6QvwMustZXX6lFKVsSo-21" target="w6QvwMustZXX6lFKVsSo-19" edge="1">
          <mxGeometry relative="1" as="geometry">
            <mxPoint x="-640" y="1095" as="targetPoint" />
            <Array as="points">
              <mxPoint x="-580" y="1095" />
              <mxPoint x="-580" y="830" />
            </Array>
          </mxGeometry>
        </mxCell>
        <mxCell id="w6QvwMustZXX6lFKVsSo-35" value="" style="edgeStyle=orthogonalEdgeStyle;rounded=0;orthogonalLoop=1;jettySize=auto;html=1;" parent="1" source="w6QvwMustZXX6lFKVsSo-21" target="w6QvwMustZXX6lFKVsSo-34" edge="1">
          <mxGeometry relative="1" as="geometry">
            <Array as="points">
              <mxPoint x="-460" y="1190" />
              <mxPoint x="-370" y="1190" />
            </Array>
          </mxGeometry>
        </mxCell>
        <mxCell id="w6QvwMustZXX6lFKVsSo-21" value="Has parser indicate msg is over?" style="rhombus;whiteSpace=wrap;html=1;" parent="1" vertex="1">
          <mxGeometry x="-510" y="1040" width="100" height="110" as="geometry" />
        </mxCell>
        <mxCell id="w6QvwMustZXX6lFKVsSo-29" value="No" style="text;html=1;align=center;verticalAlign=middle;whiteSpace=wrap;rounded=0;" parent="1" vertex="1">
          <mxGeometry x="-560" y="1070" width="60" height="30" as="geometry" />
        </mxCell>
        <mxCell id="w6QvwMustZXX6lFKVsSo-77" value="" style="edgeStyle=orthogonalEdgeStyle;rounded=0;orthogonalLoop=1;jettySize=auto;html=1;" parent="1" source="w6QvwMustZXX6lFKVsSo-34" target="w6QvwMustZXX6lFKVsSo-43" edge="1">
          <mxGeometry relative="1" as="geometry">
            <mxPoint x="-370" y="1390" as="targetPoint" />
          </mxGeometry>
        </mxCell>
        <mxCell id="w6QvwMustZXX6lFKVsSo-34" value="Get message from parser." style="rounded=1;whiteSpace=wrap;html=1;" parent="1" vertex="1">
          <mxGeometry x="-430" y="1220" width="120" height="60" as="geometry" />
        </mxCell>
        <mxCell id="w6QvwMustZXX6lFKVsSo-36" value="Yes" style="text;html=1;align=center;verticalAlign=middle;whiteSpace=wrap;rounded=0;" parent="1" vertex="1">
          <mxGeometry x="-460" y="1130" width="60" height="30" as="geometry" />
        </mxCell>
        <mxCell id="w6QvwMustZXX6lFKVsSo-47" value="" style="edgeStyle=orthogonalEdgeStyle;rounded=0;orthogonalLoop=1;jettySize=auto;html=1;" parent="1" source="w6QvwMustZXX6lFKVsSo-43" target="w6QvwMustZXX6lFKVsSo-46" edge="1">
          <mxGeometry relative="1" as="geometry" />
        </mxCell>
        <mxCell id="w6QvwMustZXX6lFKVsSo-43" value="Use message" style="rounded=1;whiteSpace=wrap;html=1;" parent="1" vertex="1">
          <mxGeometry x="-430" y="1350" width="120" height="60" as="geometry" />
        </mxCell>
        <mxCell id="w6QvwMustZXX6lFKVsSo-69" value="" style="edgeStyle=orthogonalEdgeStyle;rounded=0;orthogonalLoop=1;jettySize=auto;html=1;entryX=1;entryY=0.5;entryDx=0;entryDy=0;" parent="1" source="w6QvwMustZXX6lFKVsSo-46" target="w6QvwMustZXX6lFKVsSo-57" edge="1">
          <mxGeometry relative="1" as="geometry" />
        </mxCell>
        <mxCell id="w6QvwMustZXX6lFKVsSo-46" value="Destroy message" style="rounded=1;whiteSpace=wrap;html=1;" parent="1" vertex="1">
          <mxGeometry x="-430" y="1500" width="120" height="60" as="geometry" />
        </mxCell>
        <mxCell id="w6QvwMustZXX6lFKVsSo-66" value="" style="edgeStyle=orthogonalEdgeStyle;rounded=0;orthogonalLoop=1;jettySize=auto;html=1;entryX=0;entryY=0.5;entryDx=0;entryDy=0;" parent="1" source="w6QvwMustZXX6lFKVsSo-57" target="w6QvwMustZXX6lFKVsSo-19" edge="1">
          <mxGeometry relative="1" as="geometry">
            <mxPoint x="-755" y="1445" as="targetPoint" />
            <Array as="points">
              <mxPoint x="-700" y="1305" />
              <mxPoint x="-700" y="830" />
            </Array>
          </mxGeometry>
        </mxCell>
        <mxCell id="w6QvwMustZXX6lFKVsSo-71" value="" style="edgeStyle=orthogonalEdgeStyle;rounded=0;orthogonalLoop=1;jettySize=auto;html=1;" parent="1" source="w6QvwMustZXX6lFKVsSo-57" edge="1">
          <mxGeometry relative="1" as="geometry">
            <mxPoint x="-560" y="1495" as="targetPoint" />
          </mxGeometry>
        </mxCell>
        <mxCell id="w6QvwMustZXX6lFKVsSo-79" value="" style="edgeStyle=orthogonalEdgeStyle;rounded=0;orthogonalLoop=1;jettySize=auto;html=1;entryX=0.5;entryY=1;entryDx=0;entryDy=0;startArrow=classic;startFill=0;endArrow=none;" parent="1" source="w6QvwMustZXX6lFKVsSo-57" target="w6QvwMustZXX6lFKVsSo-21" edge="1">
          <mxGeometry relative="1" as="geometry">
            <mxPoint x="-560" y="1115" as="targetPoint" />
            <Array as="points">
              <mxPoint x="-560" y="1190" />
              <mxPoint x="-460" y="1190" />
            </Array>
          </mxGeometry>
        </mxCell>
        <mxCell id="w6QvwMustZXX6lFKVsSo-57" value="Want to parse another msg?" style="rhombus;whiteSpace=wrap;html=1;" parent="1" vertex="1">
          <mxGeometry x="-610" y="1250" width="100" height="110" as="geometry" />
        </mxCell>
        <mxCell id="w6QvwMustZXX6lFKVsSo-67" value="Yes" style="text;html=1;align=center;verticalAlign=middle;whiteSpace=wrap;rounded=0;" parent="1" vertex="1">
          <mxGeometry x="-670" y="1270" width="60" height="30" as="geometry" />
        </mxCell>
        <mxCell id="w6QvwMustZXX6lFKVsSo-72" value="No" style="text;html=1;align=center;verticalAlign=middle;whiteSpace=wrap;rounded=0;" parent="1" vertex="1">
          <mxGeometry x="-615" y="1350" width="60" height="30" as="geometry" />
        </mxCell>
        <mxCell id="w6QvwMustZXX6lFKVsSo-85" value="" style="edgeStyle=orthogonalEdgeStyle;rounded=0;orthogonalLoop=1;jettySize=auto;html=1;" parent="1" source="w6QvwMustZXX6lFKVsSo-74" target="w6QvwMustZXX6lFKVsSo-82" edge="1">
          <mxGeometry relative="1" as="geometry" />
        </mxCell>
        <mxCell id="w6QvwMustZXX6lFKVsSo-74" value="Destroy parser" style="rounded=1;whiteSpace=wrap;html=1;" parent="1" vertex="1">
          <mxGeometry x="-620" y="1500" width="120" height="60" as="geometry" />
        </mxCell>
        <mxCell id="w6QvwMustZXX6lFKVsSo-83" value="" style="edgeStyle=orthogonalEdgeStyle;rounded=0;orthogonalLoop=1;jettySize=auto;html=1;entryX=0;entryY=0.5;entryDx=0;entryDy=0;" parent="1" source="w6QvwMustZXX6lFKVsSo-82" target="w6QvwMustZXX6lFKVsSo-19" edge="1">
          <mxGeometry relative="1" as="geometry">
            <mxPoint x="-690" y="1660" as="targetPoint" />
            <Array as="points">
              <mxPoint x="-700" y="1660" />
              <mxPoint x="-700" y="830" />
            </Array>
          </mxGeometry>
        </mxCell>
        <mxCell id="w6QvwMustZXX6lFKVsSo-87" value="" style="edgeStyle=orthogonalEdgeStyle;rounded=0;orthogonalLoop=1;jettySize=auto;html=1;" parent="1" source="w6QvwMustZXX6lFKVsSo-82" edge="1">
          <mxGeometry relative="1" as="geometry">
            <mxPoint x="-560" y="1790" as="targetPoint" />
          </mxGeometry>
        </mxCell>
        <mxCell id="w6QvwMustZXX6lFKVsSo-82" value="Is any other&lt;div&gt;&amp;nbsp;parser used by the user?&lt;/div&gt;" style="rhombus;whiteSpace=wrap;html=1;" parent="1" vertex="1">
          <mxGeometry x="-615" y="1610" width="110" height="100" as="geometry" />
        </mxCell>
        <mxCell id="w6QvwMustZXX6lFKVsSo-84" value="Yes" style="text;html=1;align=center;verticalAlign=middle;whiteSpace=wrap;rounded=0;" parent="1" vertex="1">
          <mxGeometry x="-680" y="1630" width="60" height="30" as="geometry" />
        </mxCell>
        <mxCell id="w6QvwMustZXX6lFKVsSo-88" value="No" style="text;html=1;align=center;verticalAlign=middle;whiteSpace=wrap;rounded=0;" parent="1" vertex="1">
          <mxGeometry x="-550" y="1690" width="60" height="30" as="geometry" />
        </mxCell>
        <mxCell id="w6QvwMustZXX6lFKVsSo-91" value="" style="edgeStyle=orthogonalEdgeStyle;rounded=0;orthogonalLoop=1;jettySize=auto;html=1;" parent="1" source="w6QvwMustZXX6lFKVsSo-89" target="w6QvwMustZXX6lFKVsSo-90" edge="1">
          <mxGeometry relative="1" as="geometry" />
        </mxCell>
        <mxCell id="w6QvwMustZXX6lFKVsSo-89" value="Destroy library" style="rounded=1;whiteSpace=wrap;html=1;" parent="1" vertex="1">
          <mxGeometry x="-620" y="1790" width="120" height="60" as="geometry" />
        </mxCell>
        <mxCell id="w6QvwMustZXX6lFKVsSo-90" value="User doesn not use our library anymore." style="ellipse;whiteSpace=wrap;html=1;" parent="1" vertex="1">
          <mxGeometry x="-620" y="1910" width="120" height="80" as="geometry" />
        </mxCell>
        <mxCell id="ZkheOrI6pRWmsH4isbMg-12" value="" style="endArrow=none;html=1;rounded=0;strokeWidth=3;" parent="1" edge="1">
          <mxGeometry width="50" height="50" relative="1" as="geometry">
            <mxPoint x="120" y="2160" as="sourcePoint" />
            <mxPoint x="120" y="40" as="targetPoint" />
          </mxGeometry>
        </mxCell>
        <mxCell id="ZkheOrI6pRWmsH4isbMg-13" value="Socket" style="whiteSpace=wrap;html=1;aspect=fixed;" parent="1" vertex="1">
          <mxGeometry x="315" y="160" width="80" height="80" as="geometry" />
        </mxCell>
        <mxCell id="ZkheOrI6pRWmsH4isbMg-15" value="Parser" style="whiteSpace=wrap;html=1;aspect=fixed;" parent="1" vertex="1">
          <mxGeometry x="315" y="400" width="80" height="80" as="geometry" />
        </mxCell>
        <mxCell id="ZkheOrI6pRWmsH4isbMg-16" value="" style="endArrow=classic;html=1;rounded=0;entryX=0.5;entryY=0;entryDx=0;entryDy=0;" parent="1" target="ZkheOrI6pRWmsH4isbMg-15" edge="1">
          <mxGeometry width="50" height="50" relative="1" as="geometry">
            <mxPoint x="355" y="240" as="sourcePoint" />
            <mxPoint x="405" y="180" as="targetPoint" />
          </mxGeometry>
        </mxCell>
        <mxCell id="ZkheOrI6pRWmsH4isbMg-17" value="Raw bytes" style="text;html=1;align=center;verticalAlign=middle;whiteSpace=wrap;rounded=0;" parent="1" vertex="1">
          <mxGeometry x="365" y="290" width="60" height="30" as="geometry" />
        </mxCell>
        <mxCell id="ZkheOrI6pRWmsH4isbMg-20" value="value&amp;nbsp;&lt;div&gt;iterator&lt;/div&gt;" style="whiteSpace=wrap;html=1;aspect=fixed;" parent="1" vertex="1">
          <mxGeometry x="580" y="400" width="80" height="80" as="geometry" />
        </mxCell>
        <mxCell id="ZkheOrI6pRWmsH4isbMg-23" value="" style="endArrow=classic;html=1;rounded=0;exitX=1;exitY=0.5;exitDx=0;exitDy=0;entryX=0;entryY=0.5;entryDx=0;entryDy=0;curved=1;" parent="1" source="ZkheOrI6pRWmsH4isbMg-15" target="ZkheOrI6pRWmsH4isbMg-20" edge="1">
          <mxGeometry width="50" height="50" relative="1" as="geometry">
            <mxPoint x="430" y="440" as="sourcePoint" />
            <mxPoint x="480" y="390" as="targetPoint" />
            <Array as="points">
              <mxPoint x="460" y="400" />
            </Array>
          </mxGeometry>
        </mxCell>
        <mxCell id="ZkheOrI6pRWmsH4isbMg-24" value="" style="endArrow=classic;html=1;rounded=0;exitX=0;exitY=0.5;exitDx=0;exitDy=0;entryX=0;entryY=0.5;entryDx=0;entryDy=0;curved=1;" parent="1" source="ZkheOrI6pRWmsH4isbMg-20" edge="1">
          <mxGeometry width="50" height="50" relative="1" as="geometry">
            <mxPoint x="520" y="440" as="sourcePoint" />
            <mxPoint x="395" y="440" as="targetPoint" />
            <Array as="points">
              <mxPoint x="455" y="480" />
            </Array>
          </mxGeometry>
        </mxCell>
        <mxCell id="ZkheOrI6pRWmsH4isbMg-25" value="Raw bytes" style="text;html=1;align=center;verticalAlign=middle;whiteSpace=wrap;rounded=0;" parent="1" vertex="1">
          <mxGeometry x="460" y="390" width="60" height="30" as="geometry" />
        </mxCell>
        <mxCell id="ZkheOrI6pRWmsH4isbMg-26" value="ValueLine" style="swimlane;fontStyle=0;childLayout=stackLayout;horizontal=1;startSize=30;horizontalStack=0;resizeParent=1;resizeParentMax=0;resizeLast=0;collapsible=1;marginBottom=0;whiteSpace=wrap;html=1;" parent="1" vertex="1">
          <mxGeometry x="520" y="20" width="105" height="150" as="geometry" />
        </mxCell>
        <mxCell id="ZkheOrI6pRWmsH4isbMg-27" value="header" style="text;strokeColor=none;fillColor=none;align=left;verticalAlign=middle;spacingLeft=4;spacingRight=4;overflow=hidden;points=[[0,0.5],[1,0.5]];portConstraint=eastwest;rotatable=0;whiteSpace=wrap;html=1;" parent="ZkheOrI6pRWmsH4isbMg-26" vertex="1">
          <mxGeometry y="30" width="105" height="30" as="geometry" />
        </mxCell>
        <mxCell id="ZkheOrI6pRWmsH4isbMg-28" value="header_len" style="text;strokeColor=none;fillColor=none;align=left;verticalAlign=middle;spacingLeft=4;spacingRight=4;overflow=hidden;points=[[0,0.5],[1,0.5]];portConstraint=eastwest;rotatable=0;whiteSpace=wrap;html=1;" parent="ZkheOrI6pRWmsH4isbMg-26" vertex="1">
          <mxGeometry y="60" width="105" height="30" as="geometry" />
        </mxCell>
        <mxCell id="ZkheOrI6pRWmsH4isbMg-29" value="value" style="text;strokeColor=none;fillColor=none;align=left;verticalAlign=middle;spacingLeft=4;spacingRight=4;overflow=hidden;points=[[0,0.5],[1,0.5]];portConstraint=eastwest;rotatable=0;whiteSpace=wrap;html=1;" parent="ZkheOrI6pRWmsH4isbMg-26" vertex="1">
          <mxGeometry y="90" width="105" height="30" as="geometry" />
        </mxCell>
        <mxCell id="ZkheOrI6pRWmsH4isbMg-30" value="value_len" style="text;strokeColor=none;fillColor=none;align=left;verticalAlign=middle;spacingLeft=4;spacingRight=4;overflow=hidden;points=[[0,0.5],[1,0.5]];portConstraint=eastwest;rotatable=0;whiteSpace=wrap;html=1;" parent="ZkheOrI6pRWmsH4isbMg-26" vertex="1">
          <mxGeometry y="120" width="105" height="30" as="geometry" />
        </mxCell>
        <mxCell id="ZkheOrI6pRWmsH4isbMg-32" value="" style="endArrow=classic;html=1;rounded=0;" parent="1" edge="1">
          <mxGeometry width="50" height="50" relative="1" as="geometry">
            <mxPoint x="360" y="480" as="sourcePoint" />
            <mxPoint x="360" y="570" as="targetPoint" />
          </mxGeometry>
        </mxCell>
        <mxCell id="ZkheOrI6pRWmsH4isbMg-33" value="ValueLine" style="text;html=1;align=center;verticalAlign=middle;whiteSpace=wrap;rounded=0;" parent="1" vertex="1">
          <mxGeometry x="280" y="510" width="60" height="30" as="geometry" />
        </mxCell>
        <mxCell id="ZkheOrI6pRWmsH4isbMg-34" value="ValueLine" style="text;html=1;align=center;verticalAlign=middle;whiteSpace=wrap;rounded=0;" parent="1" vertex="1">
          <mxGeometry x="450" y="470" width="60" height="30" as="geometry" />
        </mxCell>
        <mxCell id="raDAFkKPr205OreLMAkA-12" value="" style="edgeStyle=orthogonalEdgeStyle;rounded=0;orthogonalLoop=1;jettySize=auto;html=1;entryX=0.5;entryY=0;entryDx=0;entryDy=0;curved=1;" edge="1" parent="1" source="ZkheOrI6pRWmsH4isbMg-35" target="raDAFkKPr205OreLMAkA-10">
          <mxGeometry relative="1" as="geometry">
            <mxPoint x="515" y="610" as="targetPoint" />
          </mxGeometry>
        </mxCell>
        <mxCell id="ZkheOrI6pRWmsH4isbMg-35" value="SchemeField" style="whiteSpace=wrap;html=1;aspect=fixed;" parent="1" vertex="1">
          <mxGeometry x="315" y="570" width="80" height="80" as="geometry" />
        </mxCell>
        <mxCell id="ZkheOrI6pRWmsH4isbMg-36" value="" style="endArrow=classic;html=1;rounded=0;curved=1;" parent="1" edge="1">
          <mxGeometry width="50" height="50" relative="1" as="geometry">
            <mxPoint x="360" y="650" as="sourcePoint" />
            <mxPoint x="360" y="740" as="targetPoint" />
            <Array as="points">
              <mxPoint x="320" y="690" />
            </Array>
          </mxGeometry>
        </mxCell>
        <mxCell id="ZkheOrI6pRWmsH4isbMg-37" value="args iterator" style="whiteSpace=wrap;html=1;aspect=fixed;" parent="1" vertex="1">
          <mxGeometry x="315" y="740" width="80" height="80" as="geometry" />
        </mxCell>
        <mxCell id="ZkheOrI6pRWmsH4isbMg-44" value="Socket" style="whiteSpace=wrap;html=1;aspect=fixed;" parent="1" vertex="1">
          <mxGeometry x="315" y="1035" width="80" height="80" as="geometry" />
        </mxCell>
        <mxCell id="ZkheOrI6pRWmsH4isbMg-45" value="Parser" style="whiteSpace=wrap;html=1;aspect=fixed;" parent="1" vertex="1">
          <mxGeometry x="315" y="1275" width="80" height="80" as="geometry" />
        </mxCell>
        <mxCell id="ZkheOrI6pRWmsH4isbMg-46" value="" style="endArrow=classic;html=1;rounded=0;entryX=0.5;entryY=0;entryDx=0;entryDy=0;" parent="1" target="ZkheOrI6pRWmsH4isbMg-45" edge="1">
          <mxGeometry width="50" height="50" relative="1" as="geometry">
            <mxPoint x="355" y="1115" as="sourcePoint" />
            <mxPoint x="405" y="1055" as="targetPoint" />
          </mxGeometry>
        </mxCell>
        <mxCell id="ZkheOrI6pRWmsH4isbMg-47" value="Raw bytes" style="text;html=1;align=center;verticalAlign=middle;whiteSpace=wrap;rounded=0;" parent="1" vertex="1">
          <mxGeometry x="365" y="1165" width="60" height="30" as="geometry" />
        </mxCell>
        <mxCell id="ZkheOrI6pRWmsH4isbMg-48" value="value&amp;nbsp;&lt;div&gt;iterator&lt;/div&gt;" style="whiteSpace=wrap;html=1;aspect=fixed;" parent="1" vertex="1">
          <mxGeometry x="580" y="1275" width="80" height="80" as="geometry" />
        </mxCell>
        <mxCell id="ZkheOrI6pRWmsH4isbMg-49" value="" style="endArrow=classic;html=1;rounded=0;exitX=1;exitY=0.5;exitDx=0;exitDy=0;entryX=0;entryY=0.5;entryDx=0;entryDy=0;curved=1;" parent="1" source="ZkheOrI6pRWmsH4isbMg-45" target="ZkheOrI6pRWmsH4isbMg-48" edge="1">
          <mxGeometry width="50" height="50" relative="1" as="geometry">
            <mxPoint x="430" y="1315" as="sourcePoint" />
            <mxPoint x="480" y="1265" as="targetPoint" />
            <Array as="points">
              <mxPoint x="460" y="1275" />
            </Array>
          </mxGeometry>
        </mxCell>
        <mxCell id="ZkheOrI6pRWmsH4isbMg-50" value="" style="endArrow=classic;html=1;rounded=0;exitX=0;exitY=0.5;exitDx=0;exitDy=0;entryX=0;entryY=0.5;entryDx=0;entryDy=0;curved=1;" parent="1" source="ZkheOrI6pRWmsH4isbMg-48" edge="1">
          <mxGeometry width="50" height="50" relative="1" as="geometry">
            <mxPoint x="520" y="1315" as="sourcePoint" />
            <mxPoint x="395" y="1315" as="targetPoint" />
            <Array as="points">
              <mxPoint x="455" y="1355" />
            </Array>
          </mxGeometry>
        </mxCell>
        <mxCell id="ZkheOrI6pRWmsH4isbMg-51" value="Raw bytes" style="text;html=1;align=center;verticalAlign=middle;whiteSpace=wrap;rounded=0;" parent="1" vertex="1">
          <mxGeometry x="460" y="1265" width="60" height="30" as="geometry" />
        </mxCell>
        <mxCell id="ZkheOrI6pRWmsH4isbMg-52" value="" style="endArrow=classic;html=1;rounded=0;exitX=0.75;exitY=1;exitDx=0;exitDy=0;entryX=0.75;entryY=1;entryDx=0;entryDy=0;curved=1;" parent="1" source="ZkheOrI6pRWmsH4isbMg-45" target="ZkheOrI6pRWmsH4isbMg-45" edge="1">
          <mxGeometry width="50" height="50" relative="1" as="geometry">
            <mxPoint x="360" y="1355" as="sourcePoint" />
            <mxPoint x="360" y="1445" as="targetPoint" />
            <Array as="points">
              <mxPoint x="430" y="1425" />
              <mxPoint x="380" y="1465" />
              <mxPoint x="350" y="1415" />
            </Array>
          </mxGeometry>
        </mxCell>
        <mxCell id="ZkheOrI6pRWmsH4isbMg-54" value="None" style="text;html=1;align=center;verticalAlign=middle;whiteSpace=wrap;rounded=0;" parent="1" vertex="1">
          <mxGeometry x="450" y="1345" width="60" height="30" as="geometry" />
        </mxCell>
        <mxCell id="ZkheOrI6pRWmsH4isbMg-61" value="Save what is left from raw bytes into parser" style="text;html=1;align=center;verticalAlign=middle;whiteSpace=wrap;rounded=0;" parent="1" vertex="1">
          <mxGeometry x="420" y="1395" width="80" height="40" as="geometry" />
        </mxCell>
        <mxCell id="ZkheOrI6pRWmsH4isbMg-62" value="" style="endArrow=classic;html=1;rounded=0;entryX=0;entryY=0.5;entryDx=0;entryDy=0;exitX=0;exitY=0.5;exitDx=0;exitDy=0;curved=1;" parent="1" source="ZkheOrI6pRWmsH4isbMg-45" target="ZkheOrI6pRWmsH4isbMg-44" edge="1">
          <mxGeometry width="50" height="50" relative="1" as="geometry">
            <mxPoint x="310" y="1315" as="sourcePoint" />
            <mxPoint x="360" y="1265" as="targetPoint" />
            <Array as="points">
              <mxPoint x="200" y="1235" />
              <mxPoint x="210" y="1095" />
            </Array>
          </mxGeometry>
        </mxCell>
        <mxCell id="raDAFkKPr205OreLMAkA-4" value="ArgsLine" style="text;html=1;align=center;verticalAlign=middle;whiteSpace=wrap;rounded=0;" vertex="1" parent="1">
          <mxGeometry x="390" y="685" width="60" height="30" as="geometry" />
        </mxCell>
        <mxCell id="raDAFkKPr205OreLMAkA-7" value="" style="endArrow=classic;html=1;rounded=0;exitX=0.561;exitY=-0.005;exitDx=0;exitDy=0;exitPerimeter=0;curved=1;" edge="1" parent="1" source="ZkheOrI6pRWmsH4isbMg-37">
          <mxGeometry width="50" height="50" relative="1" as="geometry">
            <mxPoint x="365" y="740" as="sourcePoint" />
            <mxPoint x="360" y="650" as="targetPoint" />
            <Array as="points">
              <mxPoint x="405" y="700" />
            </Array>
          </mxGeometry>
        </mxCell>
        <mxCell id="raDAFkKPr205OreLMAkA-9" value="ValueLine" style="text;html=1;align=center;verticalAlign=middle;whiteSpace=wrap;rounded=0;" vertex="1" parent="1">
          <mxGeometry x="270" y="685" width="60" height="30" as="geometry" />
        </mxCell>
        <mxCell id="raDAFkKPr205OreLMAkA-10" value="Sip msg" style="whiteSpace=wrap;html=1;aspect=fixed;" vertex="1" parent="1">
          <mxGeometry x="500" y="740" width="80" height="80" as="geometry" />
        </mxCell>
        <mxCell id="raDAFkKPr205OreLMAkA-13" value="Atomic values" style="text;html=1;align=center;verticalAlign=middle;whiteSpace=wrap;rounded=0;" vertex="1" parent="1">
          <mxGeometry x="510" y="630" width="60" height="30" as="geometry" />
        </mxCell>
        <mxCell id="raDAFkKPr205OreLMAkA-14" value="ValueLine" style="swimlane;fontStyle=0;childLayout=stackLayout;horizontal=1;startSize=30;horizontalStack=0;resizeParent=1;resizeParentMax=0;resizeLast=0;collapsible=1;marginBottom=0;whiteSpace=wrap;html=1;" vertex="1" parent="1">
          <mxGeometry x="705" y="20" width="105" height="150" as="geometry" />
        </mxCell>
        <mxCell id="raDAFkKPr205OreLMAkA-15" value="header" style="text;strokeColor=none;fillColor=none;align=left;verticalAlign=middle;spacingLeft=4;spacingRight=4;overflow=hidden;points=[[0,0.5],[1,0.5]];portConstraint=eastwest;rotatable=0;whiteSpace=wrap;html=1;" vertex="1" parent="raDAFkKPr205OreLMAkA-14">
          <mxGeometry y="30" width="105" height="30" as="geometry" />
        </mxCell>
        <mxCell id="raDAFkKPr205OreLMAkA-16" value="header_len" style="text;strokeColor=none;fillColor=none;align=left;verticalAlign=middle;spacingLeft=4;spacingRight=4;overflow=hidden;points=[[0,0.5],[1,0.5]];portConstraint=eastwest;rotatable=0;whiteSpace=wrap;html=1;" vertex="1" parent="raDAFkKPr205OreLMAkA-14">
          <mxGeometry y="60" width="105" height="30" as="geometry" />
        </mxCell>
        <mxCell id="raDAFkKPr205OreLMAkA-17" value="value" style="text;strokeColor=none;fillColor=none;align=left;verticalAlign=middle;spacingLeft=4;spacingRight=4;overflow=hidden;points=[[0,0.5],[1,0.5]];portConstraint=eastwest;rotatable=0;whiteSpace=wrap;html=1;" vertex="1" parent="raDAFkKPr205OreLMAkA-14">
          <mxGeometry y="90" width="105" height="30" as="geometry" />
        </mxCell>
        <mxCell id="raDAFkKPr205OreLMAkA-18" value="value_len" style="text;strokeColor=none;fillColor=none;align=left;verticalAlign=middle;spacingLeft=4;spacingRight=4;overflow=hidden;points=[[0,0.5],[1,0.5]];portConstraint=eastwest;rotatable=0;whiteSpace=wrap;html=1;" vertex="1" parent="raDAFkKPr205OreLMAkA-14">
          <mxGeometry y="120" width="105" height="30" as="geometry" />
        </mxCell>
      </root>
    </mxGraphModel>
  </diagram>
</mxfile>
